<?xml version="1.0" encoding="utf-8"?>
<!-- Generator: Adobe Illustrator 16.0.4, SVG Export Plug-In . SVG Version: 6.00 Build 0)  -->
<!DOCTYPE svg PUBLIC "-//W3C//DTD SVG 1.1//EN" "http://www.w3.org/Graphics/SVG/1.1/DTD/svg11.dtd">
<svg version="1.1" id="Layer_1" xmlns="http://www.w3.org/2000/svg" xmlns:xlink="http://www.w3.org/1999/xlink" x="0px" y="0px"
	 width="36px" height="36px" viewBox="0 0 36 36" enable-background="new 0 0 36 36" xml:space="preserve">
<path id="Facebook__x28_alt_x29_" fill="#FFFFFF" d="M31,8.842C31,6.449,29.553,5,27.157,5H8.936C6.541,5,4,6.449,4,8.842v18.222
	C4,29.458,6.541,32,8.936,32H18V21h-3v-4h3v-2.036C18,11.902,20.346,9,23.172,9H27v5h-3.828C22.769,14,22,14.19,22,14.924V17h5v4h-5
	v11h5.157C29.553,32,31,29.458,31,27.064V8.842z"/>
</svg>
