<?xml version="1.0" encoding="utf-8"?>
<!-- Generator: Adobe Illustrator 16.0.4, SVG Export Plug-In . SVG Version: 6.00 Build 0)  -->
<!DOCTYPE svg PUBLIC "-//W3C//DTD SVG 1.1//EN" "http://www.w3.org/Graphics/SVG/1.1/DTD/svg11.dtd">
<svg version="1.1" id="Layer_2" xmlns="http://www.w3.org/2000/svg" xmlns:xlink="http://www.w3.org/1999/xlink" x="0px" y="0px"
	 width="309.836px" height="147.541px" viewBox="0 0 309.836 147.541" enable-background="new 0 0 309.836 147.541"
	 xml:space="preserve">
<g>
	<path fill="#FFFFFF" d="M202.398,51.15c-1.968-1.628-6.851,6.287-5.149,7.619C198.95,60.101,205.684,53.37,202.398,51.15z"/>
	<path fill="#FFFFFF" d="M174.326,95.581c0.229,0.359,0.424,0.737,0.615,1.107c1.379-1.54,2.442-3.413,2.662-5.637
		C177.051,85.351,172.499,92.048,174.326,95.581z"/>
	<path fill="#FFFFFF" d="M0,0v147.541h309.836V0H0z M126.545,42.108c0,0,0.748,13.151,0.163,28.413
		c-0.337,8.846-0.19,18.341-2.437,26.27c-1.202,4.243-2.768,8.036-4.792,11.042c-7.757,13.455-31.683,16.315-40.707,1.71
		c-9.024-14.605,6.18-33.852,19.588-41.523c7.033-4.008,15.52-1.159,15.52-1.159s-2.061,2.767-9.03,4.154
		c-6.968,1.387-31.046,20.966-18.545,37.62c9.741,11.152,29.438,1.262,31.669-10.766c2.231-12.027,1.818-8.599,2.554-19.025
		c0.926-13.121,0.739-29.092-0.149-33.963c0,0-3.709,3.728-7.936,3.247c-4.227-0.481-5.628,5.093-5.628,5.093
		s-8.332,2.754-11.177-4.411c2.293-8.531,11.626-11.192,17.098-9.345c0,0,5.381,3.014,8.694-4.259
		c3.314-7.272,5.95-5.709,5.95-5.709s2.622,0.842,0.688,4.428C126.132,37.509,126.545,42.108,126.545,42.108z M157.205,111.587
		c-6.358,7.787-17.532,6.817-17.532,6.817s-6.683-0.835-10.2,5.495c-1.853-0.896-1.884-9.167,4.62-11.155l0.722-26.368
		c1.991,1.29,5.11,2.089,5.11,2.089l-0.003,23.679c4.793-0.516,13.058-2.186,16.126-7.604c0,0,5.983-8.355,1.768-20.264
		c-4.216-11.909-17.068-5.366-17.711-3.697c-0.416,1.083,2.543,4.472,7.796,5.197c1.424,0.895,0.728,1.224,0.618,1.718
		c-0.314,1.407-16.229,0.606-16.6-7.468c-0.03-3.891,15.002-14.525,26.396-4.822C169.711,84.907,167.031,99.74,157.205,111.587z
		 M223.661,101.866c-0.954-0.089-4.201-1.781-4.654-6.314c-0.453-4.533-5.197-3.722-5.682-2.134c-0.483,1.588-0.324,3.992-0.39,5.02
		c-0.064,1.027-1.891,1.82-2.337,0.58c-0.447-1.24-0.222-0.546,0.389-3.869c0.611-3.323-1.802-3.74-3.023-0.825
		c-1.222,2.916-4.106,6.941-4.106,6.941c-5.153,4.561-7.017-2.203-7.017-2.203s-2.548,4.218-7.515,4.151
		c-4.969-0.066-5.449-4.171-5.449-4.171s-2.829,3.82-5.867,4.019c-2.583,0.106-4.098-0.753-4.979-1.669
		c-2.262,1.269-4.131,1.977-4.131,1.977c-2.94,0.629-3.229-0.815-2.049-1.314c0.546-0.23,2.745-1.125,5.015-2.7
		c-3.958-11.262,4.017-14.051,6.685-13.553c2.308,0.495,2.897,2.56,2.214,7.511c-0.459,2.121-2.046,3.986-3.915,5.517
		c1.157,0.435,3.03,0.152,6.538-1.646c0,0,3.113-5.888,6.277-7.852c2.157-1.331,5.37-2.343,6.747-0.526
		c-0.699,0.043-7.909,4.147-7.172,7.117c0.737,2.969,3.066,3.001,4.23,1.796c1.163-1.205,3.405-5.689,3.405-5.689
		s1.229-3.363,1.284-3.239c0,0,0.067-1.079,1.405-1.215c2.07-0.432,2.042,1.261,2.042,1.261c-2.61,6.652-2.06,7.843-1.307,9.191
		c0.754,1.348,2.133,1.983,3.142-0.319c1.009-2.301,4.384-8.531,5.99-9.384c1.606-0.854,2.489,3.505,4.584,0.807
		c1.05-1.58,6.106-1.552,6.549,1.425c0.656,2.415,1.153,3.953,1.829,6.136c0.675,2.183,1.824,3.462,3.889,3.375
		C225.266,101.925,224.615,101.955,223.661,101.866z M227.288,62.691c0.147,2.96-8.804,9.767-13.54,4.069
		c-5.105-6.881,5.624-10.358,5.846-9.915c0.222,0.444,2.737,2.886,3.033,1.924s-2.523-4.737-4.521-5.921
		c-0.024-0.014-2.656,2.444-2.656,2.444s-1.405,2.22-7.103,7.399c-5.697,5.18-12.652,1.479-12.652,1.479
		c-9.618,4.143-10.137-3.107-10.137-3.107c-0.962-6.659-4.588-4.292-5.623-2.516c-1.035,1.776-0.591,6.733-2.663,6.215
		s0.073-2.886-1.477-6.678c-1.551-3.792-4.665-0.425-5.404,1.567c-0.74,1.992-1.036,3.631-1.036,3.631
		c-1.628,1.85-3.479,0.888-3.257-1.554c0.221-2.442,1.998-5.623-0.888-5.993c-2.886-0.37-2.295,3.329-6.808,8.73
		s-7.919,3.066-8.214,1.587c-0.296-1.479-1.831-1.598-1.831-1.598c-5.622,7.103-11.855,4.82-14.001,3.563
		c-2.145-1.258-5.993-11.172,3.33-16.5c6.362-3.255,7.934,1.084,7.934,1.084s-3.938-2.046-6.603,2.911
		c-2.663,4.958,2.22,10.21,7.104,2.812l3.329-5.771c0,0,0.738-2.072,2.589-1.406s1.554-0.222,0,4.957s-1.068,7.547,1.279,5.253
		c2.347-2.294,5.305-7.399,6.86-8.953c1.555-1.553,6.882-5.401,9.989,1.406c0,0,4.439-5.845,8.064-1.184
		c0.814-0.591,7.326-5.919,10.284,4.292c0,0,0.593,5.327,4.439,5.031c0,0-2.071-7.397,4.736-12.65
		c6.807-5.253,10.284,0.96,9.026,4.512c0,0-1.628,6.437-7.177,8.064c0,0,6.215,3.551,11.69-7.769
		c1.577-4.939,1.628-4.408,1.627-4.304c0.004-0.149,0.083-2.207,2.294-2.243c2.294-0.037,3.255,0.629,3.255,0.629
		s7.252,5.399,9.619,9.396c2.072,0.519,5.697-3.254,5.697-3.254s1.653-0.897,1.554-0.002
		C234.761,57.882,227.288,62.691,227.288,62.691z"/>
	<path fill="#FFFFFF" d="M218.04,64.023c1.332,0.518,3.403,0.666,3.995-1.036c-2.663-0.518-4.735-1.998-4.735-1.998
		C216.412,62.617,216.708,63.505,218.04,64.023z"/>
</g>
</svg>
