<?xml version="1.0" encoding="utf-8"?>
<!-- Generator: Adobe Illustrator 16.0.4, SVG Export Plug-In . SVG Version: 6.00 Build 0)  -->
<!DOCTYPE svg PUBLIC "-//W3C//DTD SVG 1.1//EN" "http://www.w3.org/Graphics/SVG/1.1/DTD/svg11.dtd">
<svg version="1.1" id="Layer_1" xmlns="http://www.w3.org/2000/svg" xmlns:xlink="http://www.w3.org/1999/xlink" x="0px" y="0px"
	 width="36px" height="36px" viewBox="0 0 36 36" enable-background="new 0 0 36 36" xml:space="preserve">
<path id="Twitter__x28_alt_x29_" fill="#FFFFFF" d="M28.721,16.942c1.558-0.129,2.614-0.837,3.021-1.797
	c-0.562,0.345-2.306,0.721-3.269,0.362c-0.047-0.226-0.1-0.44-0.152-0.635c-0.733-2.694-3.246-4.865-5.878-4.604
	c0.212-0.086,0.429-0.166,0.644-0.237c0.29-0.104,1.99-0.381,1.722-0.98c-0.226-0.528-2.303,0.398-2.693,0.521
	c0.516-0.194,1.37-0.528,1.461-1.122c-0.791,0.108-1.567,0.482-2.167,1.026c0.217-0.233,0.381-0.518,0.416-0.822
	c-2.11,1.347-3.342,4.063-4.339,6.699c-0.783-0.759-1.477-1.356-2.1-1.688c-1.747-0.937-3.835-1.914-7.114-3.131
	c-0.101,1.085,0.537,2.527,2.372,3.486c-0.398-0.054-1.125,0.065-1.707,0.205c0.237,1.242,1.01,2.267,3.105,2.761
	c-0.957,0.063-1.452,0.281-1.9,0.75c0.436,0.864,1.5,1.882,3.413,1.673c-2.127,0.917-0.868,2.616,0.864,2.362
	c-2.953,3.05-7.61,2.826-10.283,0.275c6.981,9.513,22.156,5.626,24.417-3.537c1.694,0.014,2.69-0.587,3.308-1.25
	C30.887,17.426,29.472,17.254,28.721,16.942z"/>
</svg>
