<?xml version="1.0" encoding="utf-8"?>
<!-- Generator: Adobe Illustrator 16.0.4, SVG Export Plug-In . SVG Version: 6.00 Build 0)  -->
<!DOCTYPE svg PUBLIC "-//W3C//DTD SVG 1.1//EN" "http://www.w3.org/Graphics/SVG/1.1/DTD/svg11.dtd">
<svg version="1.1" id="Layer_1" xmlns="http://www.w3.org/2000/svg" xmlns:xlink="http://www.w3.org/1999/xlink" x="0px" y="0px"
	 width="36px" height="36px" viewBox="0 0 36 36" enable-background="new 0 0 36 36" xml:space="preserve">
<path id="Vimeo" fill="#FFFFFF" d="M28.432,5.23c-4.099-0.134-6.871,2.166-8.324,6.899c0.748-0.308,1.475-0.463,2.184-0.463
	c1.495,0,2.157,0.839,1.979,2.521c-0.088,1.019-0.748,2.5-1.979,4.445c-1.236,1.949-2.16,2.921-2.771,2.921
	c-0.797,0-1.522-1.505-2.185-4.512c-0.222-0.886-0.619-3.141-1.188-6.77c-0.533-3.362-1.941-4.933-4.231-4.712
	c-0.969,0.089-2.42,0.976-4.356,2.655c-1.413,1.283-2.844,2.567-4.299,3.85l1.386,1.789c1.323-0.929,2.097-1.392,2.312-1.392
	c1.014,0,1.962,1.592,2.843,4.774c0.791,2.923,1.587,5.841,2.381,8.76c1.183,3.185,2.641,4.778,4.356,4.778
	c2.773,0,6.171-2.609,10.176-7.83c3.876-4.998,5.876-8.935,6.012-11.812C32.904,7.287,31.473,5.318,28.432,5.23z"/>
</svg>
